<?xml version="1.0" encoding="utf-8"?>
<!-- Generator: Adobe Illustrator 26.0.3, SVG Export Plug-In . SVG Version: 6.00 Build 0)  -->
<svg version="1.1" id="レイヤー_1" xmlns="http://www.w3.org/2000/svg" xmlns:xlink="http://www.w3.org/1999/xlink" x="0px"
	 y="0px" viewBox="0 0 300 300" style="enable-background:new 0 0 300 300;" xml:space="preserve">
<style type="text/css">
	.st0{opacity:0.2;}
	.st1{fill:#636363;}
	.st2{fill:#8A8A8A;}
	.st3{fill:#C4C4C4;}
	.st4{opacity:0.25;}
	.st5{fill:#A7A3A3;}
	.st6{fill:#4B4B4B;}
	.st7{fill:#CACACA;}
	.st8{fill:#D6D6D6;}
	.st9{fill:#A5A5A5;}
</style>
<g class="st0">
	<path class="st1" d="M129,116.5l2.9,1l0.6,3l-2.9-1L129,116.5z"/>
	<path class="st2" d="M134.3,115.5l-2.4,2l0.6,3l2.3-2L134.3,115.5z"/>
	<path class="st3" d="M129,116.5l2.3-2l2.9,1l-2.3,2L129,116.5z"/>
</g>
<g class="st0">
	<path class="st1" d="M21.5,76.9l2.9,1l0.6,3l-2.9-1L21.5,76.9z"/>
	<path class="st2" d="M26.8,75.9l-2.3,2l0.6,3l2.3-2L26.8,75.9z"/>
	<path class="st3" d="M21.5,76.9l2.3-2l2.9,1l-2.3,2L21.5,76.9z"/>
</g>
<g class="st0">
	<path class="st1" d="M268.5,71.1l2.9,1l0.5,3l-2.9-1L268.5,71.1z"/>
	<path class="st2" d="M273.8,70.1l-2.4,2l0.5,3l2.4-2L273.8,70.1z"/>
	<path class="st3" d="M268.5,71.1l2.3-2l2.9,1l-2.3,2L268.5,71.1z"/>
</g>
<g class="st0">
	<path class="st1" d="M190.9,8.9l2.9,1l0.6,3l-2.9-1L190.9,8.9z"/>
	<path class="st2" d="M196.1,8l-2.3,2l0.6,3l2.3-2L196.1,8z"/>
	<path class="st3" d="M190.9,8.9l2.3-2l2.9,1l-2.3,2L190.9,8.9z"/>
</g>
<g class="st0">
	<path class="st1" d="M234.8,21l2.9,1l0.6,3l-2.9-1L234.8,21z"/>
	<path class="st2" d="M240,20l-2.4,2l0.6,3l2.3-2L240,20z"/>
	<path class="st3" d="M234.8,21l2.3-2l2.9,1l-2.3,2L234.8,21z"/>
</g>
<g class="st0">
	<path class="st1" d="M133.1,42.7l2.9,1l0.6,3l-2.9-1L133.1,42.7z"/>
	<path class="st2" d="M138.3,41.7l-2.3,2l0.6,3l2.3-2L138.3,41.7z"/>
	<path class="st3" d="M133.1,42.7l2.3-2l2.9,1l-2.3,2L133.1,42.7z"/>
</g>
<g class="st0">
	<path class="st1" d="M55,25.2l2.9,1l0.6,3l-2.9-1L55,25.2z"/>
	<path class="st2" d="M60.2,24.2l-2.3,2l0.6,3l2.3-2L60.2,24.2z"/>
	<path class="st3" d="M55,25.2l2.3-2l2.9,1l-2.3,2L55,25.2z"/>
</g>
<g class="st0">
	<path class="st1" d="M203.7,91.7l2.9,1l0.5,3l-2.9-1L203.7,91.7z"/>
	<path class="st2" d="M209,90.7l-2.3,2l0.5,3l2.4-2L209,90.7z"/>
	<path class="st3" d="M203.7,91.7l2.3-2l2.9,1l-2.3,2L203.7,91.7z"/>
</g>
<g class="st0">
	<path class="st1" d="M82.1,155.6l2.9,1l0.6,3l-2.9-1L82.1,155.6z"/>
	<path class="st2" d="M87.4,154.6l-2.3,2l0.6,3l2.3-2L87.4,154.6z"/>
	<path class="st3" d="M82.1,155.6l2.3-2l2.9,1l-2.3,2L82.1,155.6z"/>
</g>
<g class="st0">
	<path class="st1" d="M237.1,149.1l2.9,1l0.6,3l-2.9-1L237.1,149.1z"/>
	<path class="st2" d="M242.4,148.1l-2.3,2l0.6,3l2.3-2L242.4,148.1z"/>
	<path class="st3" d="M237.1,149.1l2.3-2l2.9,1l-2.3,2L237.1,149.1z"/>
</g>
<g class="st0">
	<path class="st1" d="M162.8,142.3l2.9,1l0.6,3l-2.9-1L162.8,142.3z"/>
	<path class="st2" d="M168.1,141.4l-2.3,2l0.6,3l2.3-2L168.1,141.4z"/>
	<path class="st3" d="M162.8,142.3l2.3-2l2.9,1l-2.3,2L162.8,142.3z"/>
</g>
<g class="st0">
	<path class="st1" d="M26.7,176.2l2.9,1l0.6,3l-2.9-1L26.7,176.2z"/>
	<path class="st2" d="M32,175.3l-2.3,2l0.6,3l2.3-2L32,175.3z"/>
	<path class="st3" d="M26.7,176.2l2.3-2l2.9,1l-2.3,2L26.7,176.2z"/>
</g>
<g class="st0">
	<path class="st1" d="M251.7,205l2.9,1l0.6,3l-2.9-1L251.7,205z"/>
	<path class="st2" d="M256.9,204l-2.3,2l0.6,3l2.4-2L256.9,204z"/>
	<path class="st3" d="M251.7,205l2.3-2l2.9,1l-2.3,2L251.7,205z"/>
</g>
<g class="st0">
	<path class="st1" d="M182.2,263.5l2.9,1l0.6,3l-2.9-1L182.2,263.5z"/>
	<path class="st2" d="M187.4,262.5l-2.3,2l0.6,3l2.3-2L187.4,262.5z"/>
	<path class="st3" d="M182.2,263.5l2.3-2l2.9,1l-2.3,2L182.2,263.5z"/>
</g>
<g class="st0">
	<path class="st1" d="M176.4,205l2.9,1l0.6,3l-2.9-1L176.4,205z"/>
	<path class="st2" d="M181.6,204l-2.3,2l0.6,3l2.3-2L181.6,204z"/>
	<path class="st3" d="M176.4,205l2.3-2l2.9,1l-2.3,2L176.4,205z"/>
</g>
<g class="st0">
	<path class="st1" d="M278.4,282.1l2.9,1l0.5,3l-2.9-1L278.4,282.1z"/>
	<path class="st2" d="M283.6,281.1l-2.4,2l0.5,3l2.4-2L283.6,281.1z"/>
	<path class="st3" d="M278.4,282.1l2.3-2l2.9,1l-2.3,2L278.4,282.1z"/>
</g>
<g class="st0">
	<path class="st1" d="M122.7,228.1l2.9,1l0.6,3l-2.9-1L122.7,228.1z"/>
	<path class="st2" d="M127.9,227.1l-2.3,2l0.6,3l2.3-2L127.9,227.1z"/>
	<path class="st3" d="M122.7,228.1l2.3-2l2.9,1l-2.3,2L122.7,228.1z"/>
</g>
<g class="st0">
	<path class="st1" d="M105.6,282.1l2.9,1l0.6,3l-2.9-1L105.6,282.1z"/>
	<path class="st2" d="M110.8,281.2l-2.3,2l0.6,3l2.3-2L110.8,281.2z"/>
	<path class="st3" d="M105.6,282.1l2.3-2l2.9,1l-2.3,2L105.6,282.1z"/>
</g>
<g class="st0">
	<path class="st1" d="M20.3,279.1l2.9,1l0.6,3l-2.9-1L20.3,279.1z"/>
	<path class="st2" d="M25.5,278.2l-2.3,2l0.6,3l2.3-2L25.5,278.2z"/>
	<path class="st3" d="M20.3,279.1l2.3-2l2.9,1l-2.3,2L20.3,279.1z"/>
</g>
</svg>
