<?xml version="1.0" encoding="utf-8"?>
<!-- Generator: Adobe Illustrator 26.0.3, SVG Export Plug-In . SVG Version: 6.00 Build 0)  -->
<svg version="1.1" id="レイヤー_1" xmlns="http://www.w3.org/2000/svg" xmlns:xlink="http://www.w3.org/1999/xlink" x="0px"
	 y="0px" viewBox="0 0 300 300" style="enable-background:new 0 0 300 300;" xml:space="preserve">
<style type="text/css">
	.st0{opacity:0.2;}
	.st1{fill:#636363;}
	.st2{fill:#8A8A8A;}
	.st3{fill:#C4C4C4;}
	.st4{opacity:0.25;}
	.st5{fill:#A7A3A3;}
	.st6{fill:#4B4B4B;}
	.st7{fill:#CACACA;}
	.st8{fill:#D6D6D6;}
	.st9{fill:#A5A5A5;}
</style>
<g class="st0">
	<path class="st1" d="M138.9,69.8l4.5,1.5l0.9,4.6l-4.5-1.5L138.9,69.8z"/>
	<path class="st2" d="M146.9,68.3l-3.5,3.1l0.9,4.6l3.5-3.1L146.9,68.3z"/>
	<path class="st3" d="M138.9,69.8l3.5-3.1l4.5,1.5l-3.5,3.1L138.9,69.8z"/>
</g>
<g class="st0">
	<path class="st1" d="M10.7,14.2l4.5,1.5l0.9,4.6l-4.5-1.5L10.7,14.2z"/>
	<path class="st2" d="M18.7,12.6l-3.5,3.1l0.9,4.6l3.5-3.1L18.7,12.6z"/>
	<path class="st3" d="M10.7,14.2l3.5-3.1l4.5,1.5l-3.5,3.1L10.7,14.2z"/>
</g>
<g class="st0">
	<path class="st1" d="M276.6,67.3l4.5,1.5l0.9,4.6l-4.5-1.5L276.6,67.3z"/>
	<path class="st2" d="M284.7,65.8l-3.5,3.1l0.9,4.6l3.5-3.1L284.7,65.8z"/>
	<path class="st3" d="M276.6,67.3l3.5-3.1l4.5,1.5l-3.5,3.1L276.6,67.3z"/>
</g>
<g class="st0">
	<path class="st1" d="M52.4,165.7l4.5,1.5l0.9,4.6l-4.5-1.5L52.4,165.7z"/>
	<path class="st2" d="M60.6,164.2l-3.5,3.1l0.9,4.6l3.5-3.1L60.6,164.2z"/>
	<path class="st3" d="M52.4,165.7l3.5-3.1l4.5,1.5l-3.5,3.1L52.4,165.7z"/>
</g>
<g class="st0">
	<path class="st1" d="M163.3,170.2l4.5,1.5l0.9,4.6l-4.5-1.5L163.3,170.2z"/>
	<path class="st2" d="M171.4,169l-3.5,3.1l0.9,4.6l3.5-3.1L171.4,169z"/>
	<path class="st3" d="M163.3,170.2l3.5-3.1l4.5,1.5l-3.5,3.1L163.3,170.2z"/>
</g>
<g class="st0">
	<path class="st1" d="M227.6,211.6l4.5,1.5l0.9,4.6l-4.5-1.5L227.6,211.6z"/>
	<path class="st2" d="M235.6,210.1l-3.5,3.1l0.9,4.6l3.5-3.1L235.6,210.1z"/>
	<path class="st3" d="M227.6,211.6l3.5-3.1l4.5,1.5l-3.5,3.1L227.6,211.6z"/>
</g>
<g class="st0">
	<path class="st1" d="M114.9,277.4l4.5,1.5l0.9,4.6l-4.5-1.5L114.9,277.4z"/>
	<path class="st2" d="M122.9,275.8l-3.5,3.1l0.9,4.6l3.5-3.1L122.9,275.8z"/>
	<path class="st3" d="M114.9,277.4l3.5-3.1l4.5,1.5l-3.5,3.1L114.9,277.4z"/>
</g>
</svg>
