<?xml version="1.0" encoding="utf-8"?>
<!-- Generator: Adobe Illustrator 26.0.3, SVG Export Plug-In . SVG Version: 6.00 Build 0)  -->
<svg version="1.1" id="レイヤー_1" xmlns="http://www.w3.org/2000/svg" xmlns:xlink="http://www.w3.org/1999/xlink" x="0px"
	 y="0px" viewBox="0 0 300 300" style="enable-background:new 0 0 300 300;" xml:space="preserve">
<style type="text/css">
	.st0{opacity:0.2;}
	.st1{fill:#636363;}
	.st2{fill:#8A8A8A;}
	.st3{fill:#C4C4C4;}
	.st4{opacity:0.25;}
	.st5{fill:#A7A3A3;}
	.st6{fill:#4B4B4B;}
	.st7{fill:#CACACA;}
	.st8{fill:#D6D6D6;}
	.st9{fill:#A5A5A5;}
</style>
<g class="st4">
	<path class="st8" d="M245.9,26.6l-8.9,9l-12.2-3.2l8.9-9L245.9,26.6z"/>
	<path class="st6" d="M240.2,47.8L237,35.6l-12.2-3.2l3.2,12.2L240.2,47.8z"/>
	<path class="st9" d="M245.9,26.6l3.2,12.2l-8.9,9L237,35.6L245.9,26.6z"/>
</g>
<g class="st4">
	<path class="st8" d="M156.5,9.2l-8.9,9l-12.2-3.2l8.9-9L156.5,9.2z"/>
	<path class="st6" d="M150.9,30.4l-3.2-12.2l-12.2-3.2l3.2,12.2L150.9,30.4z"/>
	<path class="st9" d="M156.5,9.2l3.2,12.2l-8.9,9l-3.2-12.2L156.5,9.2z"/>
</g>
<g class="st4">
	<path class="st8" d="M34.4,75l-8.9,9l-12.2-3.2l8.9-9L34.4,75z"/>
	<path class="st6" d="M28.7,96.2L25.5,84l-12.2-3.2L16.6,93L28.7,96.2z"/>
	<path class="st9" d="M34.4,75l3.2,12.2l-8.9,9L25.5,84L34.4,75z"/>
</g>
<g class="st4">
	<path class="st8" d="M249.1,164.6l-8.9,9l-12.2-3.2l8.9-9L249.1,164.6z"/>
	<path class="st6" d="M243.4,185.9l-3.2-12.2l-12.2-3.2l3.2,12.2L243.4,185.9z"/>
	<path class="st9" d="M249.1,164.7l3.2,12.2l-8.9,9l-3.2-12.2L249.1,164.7z"/>
</g>
<g class="st4">
	<path class="st8" d="M43.4,235.6l-8.9,9l-12.2-3.2l8.9-9L43.4,235.6z"/>
	<path class="st6" d="M37.7,256.9l-3.2-12.2l-12.2-3.2l3.2,12.2L37.7,256.9z"/>
	<path class="st9" d="M43.4,235.7l3.2,12.2l-8.9,9l-3.2-12.2L43.4,235.7z"/>
</g>
<g class="st4">
	<path class="st8" d="M278.8,277.6l-8.9,9l-12.2-3.2l8.9-9L278.8,277.6z"/>
	<path class="st6" d="M273.1,298.9l-3.2-12.2l-12.2-3.2l3.2,12.2L273.1,298.9z"/>
	<path class="st9" d="M278.8,277.6l3.2,12.2l-8.9,9l-3.2-12.2L278.8,277.6z"/>
</g>
</svg>
