<?xml version="1.0" encoding="utf-8"?>
<!-- Generator: Adobe Illustrator 26.0.3, SVG Export Plug-In . SVG Version: 6.00 Build 0)  -->
<svg version="1.1" id="レイヤー_1" xmlns="http://www.w3.org/2000/svg" xmlns:xlink="http://www.w3.org/1999/xlink" x="0px"
	 y="0px" viewBox="0 0 300 300" style="enable-background:new 0 0 300 300;" xml:space="preserve">
<style type="text/css">
	.st0{opacity:0.2;}
	.st1{fill:#636363;}
	.st2{fill:#8A8A8A;}
	.st3{fill:#C4C4C4;}
	.st4{opacity:0.25;}
	.st5{fill:#A7A3A3;}
	.st6{fill:#4B4B4B;}
	.st7{fill:#CACACA;}
	.st8{fill:#D6D6D6;}
	.st9{fill:#A5A5A5;}
</style>
<g class="st4">
	<path class="st5" d="M73.4,16.6l3.1,6.3l-3.9,5.8l-3.1-6.3L73.4,16.6z"/>
	<path class="st6" d="M83.4,23.5l-7-0.5l-3.9,5.8l7,0.5L83.4,23.5z"/>
	<path class="st7" d="M73.4,16.6l6.9,0.5l3.1,6.3l-6.9-0.5L73.4,16.6z"/>
</g>
<g class="st4">
	<path class="st5" d="M204.2,32.3l3.1,6.3l-3.9,5.8l-3.1-6.3L204.2,32.3z"/>
	<path class="st6" d="M214.2,39.2l-7-0.5l-3.9,5.8l7,0.5L214.2,39.2z"/>
	<path class="st7" d="M204.2,32.3l6.9,0.5l3.1,6.3l-6.9-0.5L204.2,32.3z"/>
</g>
<g class="st4">
	<path class="st5" d="M77.3,156.5l3.1,6.3l-3.9,5.8l-3.1-6.3L77.3,156.5z"/>
	<path class="st6" d="M87.3,163.4l-7-0.5l-3.9,5.8l7,0.5L87.3,163.4z"/>
	<path class="st7" d="M77.3,156.5l6.9,0.5l3.1,6.3l-6.9-0.5L77.3,156.5z"/>
</g>
<g class="st4">
	<path class="st5" d="M205.7,92.6l3.1,6.3l-3.9,5.8l-3.1-6.3L205.7,92.6z"/>
	<path class="st6" d="M215.7,99.5l-7-0.5l-3.9,5.8l7,0.5L215.7,99.5z"/>
	<path class="st7" d="M205.7,92.6l6.9,0.5l3.1,6.3l-6.9-0.5L205.7,92.6z"/>
</g>
<g class="st4">
	<path class="st5" d="M107.2,65.2l3.1,6.3l-3.9,5.8l-3.1-6.3L107.2,65.2z"/>
	<path class="st6" d="M117.2,72l-7-0.5l-3.9,5.8l7,0.5L117.2,72z"/>
	<path class="st7" d="M107.2,65.2l6.9,0.5l3.1,6.3l-6.9-0.5L107.2,65.2z"/>
</g>
<g class="st4">
	<path class="st5" d="M154.5,102.3l3.1,6.3l-3.9,5.8l-3.1-6.3L154.5,102.3z"/>
	<path class="st6" d="M164.5,109.1l-7-0.5l-3.9,5.8l7,0.5L164.5,109.1z"/>
	<path class="st7" d="M154.5,102.3l6.9,0.5l3.1,6.3l-6.9-0.5L154.5,102.3z"/>
</g>
<g class="st4">
	<path class="st5" d="M147.1,178.4l3.1,6.3l-3.9,5.8l-3.1-6.3L147.1,178.4z"/>
	<path class="st6" d="M157.1,185.2l-7-0.5l-3.9,5.8l7,0.5L157.1,185.2z"/>
	<path class="st7" d="M147.1,178.4l6.9,0.5l3.1,6.3l-6.9-0.5L147.1,178.4z"/>
</g>
<g class="st4">
	<path class="st5" d="M218.2,237.8l3.1,6.3l-3.9,5.8l-3.1-6.3L218.2,237.8z"/>
	<path class="st6" d="M228.2,244.6l-7-0.5l-3.9,5.8l7,0.5L228.2,244.6z"/>
	<path class="st7" d="M218.2,237.8l6.9,0.5l3.1,6.3l-6.9-0.5L218.2,237.8z"/>
</g>
<g class="st4">
	<path class="st5" d="M73.5,232l3.1,6.3l-3.9,5.8l-3.1-6.3L73.5,232z"/>
	<path class="st6" d="M83.5,238.8l-7-0.5l-3.9,5.8l7,0.5L83.5,238.8z"/>
	<path class="st7" d="M73.5,232l6.9,0.5l3.1,6.3l-6.9-0.5L73.5,232z"/>
</g>
<g class="st4">
	<path class="st5" d="M156.1,275.1l3.1,6.3l-3.9,5.8l-3.1-6.3L156.1,275.1z"/>
	<path class="st6" d="M166.1,281.9l-7-0.5l-3.9,5.8l7,0.5L166.1,281.9z"/>
	<path class="st7" d="M156.1,275.1l6.9,0.5l3.1,6.3l-6.9-0.5L156.1,275.1z"/>
</g>
</svg>
