<?xml version="1.0" encoding="utf-8"?>
<!-- Generator: Adobe Illustrator 26.0.3, SVG Export Plug-In . SVG Version: 6.00 Build 0)  -->
<svg version="1.1" id="レイヤー_1" xmlns="http://www.w3.org/2000/svg" xmlns:xlink="http://www.w3.org/1999/xlink" x="0px"
	 y="0px" viewBox="0 0 300 300" style="enable-background:new 0 0 300 300;" xml:space="preserve">
<style type="text/css">
	.st0{opacity:0.2;}
	.st1{fill:#636363;}
	.st2{fill:#8A8A8A;}
	.st3{fill:#C4C4C4;}
	.st4{opacity:0.25;}
	.st5{fill:#A7A3A3;}
	.st6{fill:#4B4B4B;}
	.st7{fill:#CACACA;}
	.st8{fill:#D6D6D6;}
	.st9{fill:#A5A5A5;}
</style>
<g class="st0">
	<path class="st1" d="M-193.8,115.5l2.9,1l0.6,3l-2.9-1L-193.8,115.5z"/>
	<path class="st2" d="M-188.5,114.5l-2.4,2l0.6,3l2.3-2L-188.5,114.5z"/>
	<path class="st3" d="M-193.8,115.5l2.3-2l2.9,1l-2.3,2L-193.8,115.5z"/>
</g>
<g class="st0">
	<path class="st1" d="M-301.3,75.9l2.9,1l0.6,3l-2.9-1L-301.3,75.9z"/>
	<path class="st2" d="M-296,74.9l-2.3,2l0.6,3l2.3-2L-296,74.9z"/>
	<path class="st3" d="M-301.3,75.9l2.3-2l2.9,1l-2.3,2L-301.3,75.9z"/>
</g>
<g class="st0">
	<path class="st1" d="M-54.3,70.1l2.9,1l0.6,3l-2.9-1L-54.3,70.1z"/>
	<path class="st2" d="M-49,69.1l-2.4,2l0.6,3l2.3-2L-49,69.1z"/>
	<path class="st3" d="M-54.3,70.1l2.3-2l2.9,1l-2.3,2L-54.3,70.1z"/>
</g>
<g class="st0">
	<path class="st1" d="M-131.9,7.9l2.9,1l0.6,3l-2.9-1L-131.9,7.9z"/>
	<path class="st2" d="M-126.7,7l-2.3,2l0.6,3l2.3-2L-126.7,7z"/>
	<path class="st3" d="M-131.9,7.9l2.3-2l2.9,1l-2.3,2L-131.9,7.9z"/>
</g>
<g class="st0">
	<path class="st1" d="M-88,20l2.9,1l0.5,3l-2.9-1L-88,20z"/>
	<path class="st2" d="M-82.8,19l-2.3,2l0.5,3l2.4-2L-82.8,19z"/>
	<path class="st3" d="M-88,20l2.3-2l2.9,1l-2.3,2L-88,20z"/>
</g>
<g class="st0">
	<path class="st1" d="M-189.7,41.7l2.9,1l0.6,3l-2.9-1L-189.7,41.7z"/>
	<path class="st2" d="M-184.5,40.7l-2.3,2l0.6,3l2.3-2L-184.5,40.7z"/>
	<path class="st3" d="M-189.7,41.7l2.3-2l2.9,1l-2.3,2L-189.7,41.7z"/>
</g>
<g class="st0">
	<path class="st1" d="M-267.8,24.2l2.9,1l0.6,3l-2.9-1L-267.8,24.2z"/>
	<path class="st2" d="M-262.6,23.2l-2.3,2l0.6,3l2.3-2L-262.6,23.2z"/>
	<path class="st3" d="M-267.8,24.2l2.3-2l2.9,1l-2.3,2L-267.8,24.2z"/>
</g>
<g class="st0">
	<path class="st1" d="M-119.1,90.7l2.9,1l0.6,3l-2.9-1L-119.1,90.7z"/>
	<path class="st2" d="M-113.8,89.7l-2.3,2l0.6,3l2.3-2L-113.8,89.7z"/>
	<path class="st3" d="M-119.1,90.7l2.3-2l2.9,1l-2.3,2L-119.1,90.7z"/>
</g>
<g class="st0">
	<path class="st1" d="M-240.7,154.6l2.9,1l0.6,3l-2.9-1L-240.7,154.6z"/>
	<path class="st2" d="M-235.4,153.6l-2.3,2l0.6,3l2.3-2L-235.4,153.6z"/>
	<path class="st3" d="M-240.7,154.6l2.3-2l2.9,1l-2.3,2L-240.7,154.6z"/>
</g>
<g class="st0">
	<path class="st1" d="M-85.7,148.1l2.9,1l0.6,3l-2.9-1L-85.7,148.1z"/>
	<path class="st2" d="M-80.4,147.1l-2.3,2l0.6,3l2.3-2L-80.4,147.1z"/>
	<path class="st3" d="M-85.7,148.1l2.3-2l2.9,1l-2.3,2L-85.7,148.1z"/>
</g>
<g class="st0">
	<path class="st1" d="M-160,141.2l2.9,1l0.6,3l-2.9-1L-160,141.2z"/>
	<path class="st2" d="M-154.7,140.4l-2.3,2l0.6,3l2.3-2L-154.7,140.4z"/>
	<path class="st3" d="M-160,141.2l2.3-2l2.9,1l-2.3,2L-160,141.2z"/>
</g>
<g class="st0">
	<path class="st1" d="M-296.1,175.2l2.9,1l0.6,3l-2.9-1L-296.1,175.2z"/>
	<path class="st2" d="M-290.8,174.2l-2.3,2l0.6,3l2.3-2L-290.8,174.2z"/>
	<path class="st3" d="M-296.1,175.2l2.3-2l2.9,1l-2.3,2L-296.1,175.2z"/>
</g>
<g class="st0">
	<path class="st1" d="M-71.1,203.9l2.9,1l0.5,3l-2.9-1L-71.1,203.9z"/>
	<path class="st2" d="M-65.9,202.9l-2.4,2l0.5,3l2.4-2L-65.9,202.9z"/>
	<path class="st3" d="M-71.1,203.9l2.3-2l2.9,1l-2.3,2L-71.1,203.9z"/>
</g>
<g class="st0">
	<path class="st1" d="M-140.6,262.4l2.9,1l0.6,3l-2.9-1L-140.6,262.4z"/>
	<path class="st2" d="M-135.4,261.4l-2.3,2l0.6,3l2.3-2L-135.4,261.4z"/>
	<path class="st3" d="M-140.6,262.4l2.3-2l2.9,1l-2.3,2L-140.6,262.4z"/>
</g>
<g class="st0">
	<path class="st1" d="M-146.4,203.9l2.9,1l0.6,3l-2.9-1L-146.4,203.9z"/>
	<path class="st2" d="M-141.2,202.9l-2.3,2l0.6,3l2.3-2L-141.2,202.9z"/>
	<path class="st3" d="M-146.4,203.9l2.3-2l2.9,1l-2.3,2L-146.4,203.9z"/>
</g>
<g class="st0">
	<path class="st1" d="M-44.4,281l2.9,1l0.6,3l-2.9-1L-44.4,281z"/>
	<path class="st2" d="M-39.2,280l-2.4,2l0.6,3l2.3-2L-39.2,280z"/>
	<path class="st3" d="M-44.4,281l2.3-2l2.9,1l-2.3,2L-44.4,281z"/>
</g>
<g class="st0">
	<path class="st1" d="M-200.1,227.1l2.9,1l0.6,3l-2.9-1L-200.1,227.1z"/>
	<path class="st2" d="M-194.9,226.1l-2.3,2l0.6,3l2.3-2L-194.9,226.1z"/>
	<path class="st3" d="M-200.1,227.1l2.3-2l2.9,1l-2.3,2L-200.1,227.1z"/>
</g>
<g class="st0">
	<path class="st1" d="M-217.2,281l2.9,1l0.5,3l-2.9-1L-217.2,281z"/>
	<path class="st2" d="M-212,280.1l-2.3,2l0.5,3l2.4-2L-212,280.1z"/>
	<path class="st3" d="M-217.2,281l2.3-2l2.9,1l-2.3,2L-217.2,281z"/>
</g>
<g class="st0">
	<path class="st1" d="M-302.5,278l2.9,1l0.6,3l-2.9-1L-302.5,278z"/>
	<path class="st2" d="M-297.3,277.1l-2.3,2l0.6,3l2.3-2L-297.3,277.1z"/>
	<path class="st3" d="M-302.5,278l2.3-2l2.9,1l-2.3,2L-302.5,278z"/>
</g>
<g class="st4">
	<path class="st5" d="M61.6,15.7l3.1,6.3l-3.9,5.8l-3.1-6.3L61.6,15.7z"/>
	<path class="st6" d="M71.6,22.6l-7-0.5l-3.9,5.8l7,0.5L71.6,22.6z"/>
	<path class="st7" d="M61.6,15.7l6.9,0.5l3.1,6.3L64.7,22L61.6,15.7z"/>
</g>
<g class="st4">
	<path class="st5" d="M196.4,31.4l3.1,6.3l-3.9,5.8l-3.1-6.3L196.4,31.4z"/>
	<path class="st6" d="M206.4,38.3l-7-0.5l-3.9,5.8l7,0.5L206.4,38.3z"/>
	<path class="st7" d="M196.4,31.4l6.9,0.5l3.1,6.3l-6.9-0.5L196.4,31.4z"/>
</g>
<g class="st4">
	<path class="st5" d="M65.5,155.6l3.1,6.3l-3.9,5.8l-3.1-6.3L65.5,155.6z"/>
	<path class="st6" d="M75.5,162.4l-7-0.5l-3.9,5.8l7,0.5L75.5,162.4z"/>
	<path class="st7" d="M65.5,155.6l6.9,0.5l3.1,6.3l-6.9-0.5L65.5,155.6z"/>
</g>
<g class="st4">
	<path class="st5" d="M197.9,91.7L201,98l-3.9,5.8l-3.1-6.3L197.9,91.7z"/>
	<path class="st6" d="M207.9,98.6l-7-0.5l-3.9,5.8l7,0.5L207.9,98.6z"/>
	<path class="st7" d="M197.9,91.7l6.9,0.5l3.1,6.3L201,98L197.9,91.7z"/>
</g>
<g class="st4">
	<path class="st5" d="M95.4,64.2l3.1,6.3l-3.9,5.8L91.5,70L95.4,64.2z"/>
	<path class="st6" d="M105.4,71.1l-7-0.5l-3.9,5.8l7,0.5L105.4,71.1z"/>
	<path class="st7" d="M95.4,64.2l6.9,0.5l3.1,6.3l-6.9-0.5L95.4,64.2z"/>
</g>
<g class="st4">
	<path class="st5" d="M142.7,101.4l3.1,6.3l-3.9,5.8l-3.1-6.3L142.7,101.4z"/>
	<path class="st6" d="M152.7,108.2l-7-0.5l-3.9,5.8l7,0.5L152.7,108.2z"/>
	<path class="st7" d="M142.7,101.4l6.9,0.5l3.1,6.3l-6.9-0.5L142.7,101.4z"/>
</g>
<g class="st4">
	<path class="st5" d="M135.3,177.4l3.1,6.3l-3.9,5.8l-3.1-6.3L135.3,177.4z"/>
	<path class="st6" d="M145.3,184.2l-7-0.5l-3.9,5.8l7,0.5L145.3,184.2z"/>
	<path class="st7" d="M135.3,177.4l6.9,0.5l3.1,6.3l-6.9-0.5L135.3,177.4z"/>
</g>
<g class="st4">
	<path class="st5" d="M210.4,236.9l3.1,6.3l-3.9,5.8l-3.1-6.3L210.4,236.9z"/>
	<path class="st6" d="M220.4,243.7l-7-0.5l-3.9,5.8l7,0.5L220.4,243.7z"/>
	<path class="st7" d="M210.4,236.9l6.9,0.5l3.1,6.3l-6.9-0.5L210.4,236.9z"/>
</g>
<g class="st4">
	<path class="st5" d="M61.7,227.1l3.1,6.3l-3.9,5.8l-3.1-6.3L61.7,227.1z"/>
	<path class="st6" d="M71.7,233.9l-7-0.5l-3.9,5.8l7,0.5L71.7,233.9z"/>
	<path class="st7" d="M61.7,227.1l6.9,0.5l3.1,6.3l-6.9-0.5L61.7,227.1z"/>
</g>
<g class="st4">
	<path class="st5" d="M144.3,274.1l3.1,6.3l-3.9,5.8l-3.1-6.3L144.3,274.1z"/>
	<path class="st6" d="M154.3,280.9l-7-0.5l-3.9,5.8l7,0.5L154.3,280.9z"/>
	<path class="st7" d="M144.3,274.1l6.9,0.5l3.1,6.3l-6.9-0.5L144.3,274.1z"/>
</g>
<g class="st4">
	<path class="st8" d="M576,38.7l-8.9,9l-12.2-3.2l8.9-9L576,38.7z"/>
	<path class="st6" d="M570.3,59.9l-3.2-12.2l-12.2-3.2l3.2,12.2L570.3,59.9z"/>
	<path class="st9" d="M576,38.7l3.2,12.2l-8.9,9l-3.2-12.2L576,38.7z"/>
</g>
<g class="st4">
	<path class="st8" d="M478.6,8.3l-8.9,9l-12.2-3.2l8.9-9L478.6,8.3z"/>
	<path class="st6" d="M473,29.5l-3.2-12.2l-12.2-3.2l3.2,12.2L473,29.5z"/>
	<path class="st9" d="M478.6,8.3l3.2,12.2l-8.9,9l-3.2-12.2L478.6,8.3z"/>
</g>
<g class="st4">
	<path class="st8" d="M350.5,94.1l-8.9,9l-12.2-3.2l8.9-9L350.5,94.1z"/>
	<path class="st6" d="M344.8,115.2l-3.2-12.2l-12.2-3.1l3.2,12.2L344.8,115.2z"/>
	<path class="st9" d="M350.5,94.1l3.2,12.2l-8.9,9l-3.2-12.2L350.5,94.1z"/>
</g>
<g class="st4">
	<path class="st8" d="M579.2,156.7l-8.9,9l-12.2-3.2l8.9-9L579.2,156.7z"/>
	<path class="st6" d="M573.5,177.9l-3.2-12.2l-12.2-3.2l3.2,12.2L573.5,177.9z"/>
	<path class="st9" d="M579.2,156.8l3.2,12.2l-8.9,9l-3.2-12.2L579.2,156.8z"/>
</g>
<g class="st4">
	<path class="st8" d="M359.5,230.7l-8.9,9l-12.2-3.2l8.9-9L359.5,230.7z"/>
	<path class="st6" d="M353.8,251.9l-3.2-12.2l-12.2-3.2l3.2,12.2L353.8,251.9z"/>
	<path class="st9" d="M359.5,230.8l3.2,12.2l-8.9,9l-3.2-12.2L359.5,230.8z"/>
</g>
<g class="st4">
	<path class="st8" d="M608.9,269.6l-8.9,9l-12.2-3.2l8.9-9L608.9,269.6z"/>
	<path class="st6" d="M603.2,290.9l-3.2-12.2l-12.2-3.2l3.2,12.2L603.2,290.9z"/>
	<path class="st9" d="M608.9,269.6l3.2,12.2l-8.9,9l-3.2-12.2L608.9,269.6z"/>
</g>
</svg>
