<?xml version="1.0" encoding="utf-8"?>
<!-- Generator: Adobe Illustrator 26.0.3, SVG Export Plug-In . SVG Version: 6.00 Build 0)  -->
<svg version="1.1" id="レイヤー_1" xmlns="http://www.w3.org/2000/svg" xmlns:xlink="http://www.w3.org/1999/xlink" x="0px"
	 y="0px" viewBox="0 0 300 300" style="enable-background:new 0 0 300 300;" xml:space="preserve">
<style type="text/css">
	.st0{opacity:0.2;}
	.st1{fill:#636363;}
	.st2{fill:#8A8A8A;}
	.st3{fill:#C4C4C4;}
	.st4{opacity:0.25;}
	.st5{fill:#A7A3A3;}
	.st6{fill:#4B4B4B;}
	.st7{fill:#CACACA;}
	.st8{fill:#D6D6D6;}
	.st9{fill:#A5A5A5;}
</style>
<g class="st4">
	<path class="st8" d="M266.6,42.8l-10,10.1l-13.7-3.6l10-10.1L266.6,42.8z"/>
	<path class="st6" d="M260.2,66.6l-3.6-13.7l-13.7-3.6l3.6,13.7L260.2,66.6z"/>
	<path class="st9" d="M266.6,42.8l3.6,13.7l-10,10.1l-3.6-13.7L266.6,42.8z"/>
</g>
<g class="st4">
	<path class="st8" d="M157.2,8.6l-10,10.1l-13.7-3.6l10-10.1L157.2,8.6z"/>
	<path class="st6" d="M150.9,32.4l-3.6-13.7l-13.7-3.6l3.6,13.7L150.9,32.4z"/>
	<path class="st9" d="M157.2,8.6l3.6,13.7l-10,10.1l-3.6-13.7L157.2,8.6z"/>
</g>
<g class="st4">
	<path class="st8" d="M27.4,75l-10,10.1L3.7,81.5l10-10.1L27.4,75z"/>
	<path class="st6" d="M21,98.7L17.4,85L3.7,81.5l3.6,13.7L21,98.7z"/>
	<path class="st9" d="M27.4,75l3.6,13.7L21,98.8l-3.6-13.7L27.4,75z"/>
</g>
<g class="st4">
	<path class="st8" d="M260.2,145.3l-10,10.1l-13.7-3.6l10-10.1L260.2,145.3z"/>
	<path class="st6" d="M253.8,169.1l-3.6-13.7l-13.7-3.6l3.6,13.7L253.8,169.1z"/>
	<path class="st9" d="M260.2,145.4l3.6,13.7l-10,10.1l-3.6-13.7L260.2,145.4z"/>
</g>
<g class="st4">
	<path class="st8" d="M37.5,208.4l-10,10.1l-13.7-3.6l10-10.1L37.5,208.4z"/>
	<path class="st6" d="M31.1,232.2l-3.6-13.7l-13.7-3.6l3.6,13.7L31.1,232.2z"/>
	<path class="st9" d="M37.5,208.5l3.6,13.7l-10,10.1l-3.6-13.7L37.5,208.5z"/>
</g>
<g class="st4">
	<path class="st8" d="M292.6,252.1l-10,10.1l-13.7-3.6l10-10.1L292.6,252.1z"/>
	<path class="st6" d="M286.1,276l-3.6-13.7l-13.7-3.6l3.6,13.7L286.1,276z"/>
	<path class="st9" d="M292.6,252.1l3.6,13.7l-10,10.1l-3.6-13.7L292.6,252.1z"/>
</g>
</svg>
