<?xml version="1.0" encoding="utf-8"?>
<!-- Generator: Adobe Illustrator 26.0.3, SVG Export Plug-In . SVG Version: 6.00 Build 0)  -->
<svg version="1.1" id="レイヤー_1" xmlns="http://www.w3.org/2000/svg" xmlns:xlink="http://www.w3.org/1999/xlink" x="0px"
	 y="0px" viewBox="0 0 300 300" style="enable-background:new 0 0 300 300;" xml:space="preserve">
<style type="text/css">
	.st0{opacity:0.2;}
	.st1{fill:#636363;}
	.st2{fill:#8A8A8A;}
	.st3{fill:#C4C4C4;}
	.st4{opacity:0.25;}
	.st5{fill:#A7A3A3;}
	.st6{fill:#4B4B4B;}
	.st7{fill:#CACACA;}
	.st8{fill:#D6D6D6;}
	.st9{fill:#A5A5A5;}
</style>
<g class="st4">
	<path class="st5" d="M91.6,45.7l3.1,6.3l-3.9,5.8l-3.1-6.3L91.6,45.7z"/>
	<path class="st6" d="M101.6,52.6l-7-0.5l-3.9,5.8l7,0.5L101.6,52.6z"/>
	<path class="st7" d="M91.6,45.7l6.9,0.5l3.1,6.3L94.7,52L91.6,45.7z"/>
</g>
<g class="st4">
	<path class="st5" d="M196.4,31.4l3.1,6.3l-3.9,5.8l-3.1-6.3L196.4,31.4z"/>
	<path class="st6" d="M206.4,38.3l-7-0.5l-3.9,5.8l7,0.5L206.4,38.3z"/>
	<path class="st7" d="M196.4,31.4l6.9,0.5l3.1,6.3l-6.9-0.5L196.4,31.4z"/>
</g>
<g class="st4">
	<path class="st5" d="M65.5,155.6l3.1,6.3l-3.9,5.8l-3.1-6.3L65.5,155.6z"/>
	<path class="st6" d="M75.5,162.4l-7-0.5l-3.9,5.8l7,0.5L75.5,162.4z"/>
	<path class="st7" d="M65.5,155.6l6.9,0.5l3.1,6.3l-6.9-0.5L65.5,155.6z"/>
</g>
<g class="st4">
	<path class="st5" d="M72.4,237.4l3.1,6.3l-3.9,5.8l-3.1-6.3L72.4,237.4z"/>
	<path class="st6" d="M82.4,244.2l-7-0.5l-3.9,5.8l7,0.5L82.4,244.2z"/>
	<path class="st7" d="M72.4,237.4l6.9,0.5l3.1,6.3l-6.9-0.5L72.4,237.4z"/>
</g>
<g class="st4">
	<path class="st5" d="M212.4,200.9l3.1,6.3l-3.9,5.8l-3.1-6.3L212.4,200.9z"/>
	<path class="st6" d="M222.4,207.7l-7-0.5l-3.9,5.8l7,0.5L222.4,207.7z"/>
	<path class="st7" d="M212.4,200.9l6.9,0.5l3.1,6.3l-6.9-0.5L212.4,200.9z"/>
</g>
</svg>
