<svg version="1.1" xmlns="http://www.w3.org/2000/svg" xmlns:xlink="http://www.w3.org/1999/xlink" x="0px" y="0px" width="300px"
	 height="34.1px" viewBox="0 0 300 34.1" style="overflow:visible;enable-background:new 0 0 300 34.1;" xml:space="preserve">
<style type="text/css">
	.title-deco-st0{fill:#FF9308;}
	.title-deco-st1{fill:#2374F6;}
</style>
<defs>
</defs>
<polygon class="title-deco-st0" points="201.3,0 159.5,0 146.5,10.5 105.9,10.5 92.8,0 51.1,0 51.1,1.7 92.5,1.7 105.4,12.2 147.2,12.2 
	159.8,1.7 201.3,1.7 "/>
<polygon class="title-deco-st0" points="300,16.1 258.2,16.1 257.7,16.3 245.1,26.6 204.6,26.6 191.5,16.1 149.7,16.1 149.7,17.7 191.2,17.7 
	204.1,28.3 245.9,28.3 258.5,17.7 300,17.7 "/>
<polygon class="title-deco-st1" points="216.7,16.1 203.8,5.5 162,5.5 149.4,16.1 107.9,16.1 107.9,17.7 149.7,17.7 162.7,7.2 203.3,7.2 
	215.8,17.5 258.1,17.7 258.1,16.1 "/>
<polygon class="title-deco-st1" points="150.2,21.9 108.5,21.9 107.9,22.1 95.4,32.4 54.9,32.4 41.8,21.9 0,21.9 0,23.6 41.5,23.6 54.3,34.1 
	96.1,34.1 108.8,23.6 150.2,23.6 "/>
</svg>
