<svg xmlns="http://www.w3.org/2000/svg" width="24" height="30" viewBox="0 0 24 30">
  <g id="Group_2898" data-name="Group 2898" transform="translate(-351 -191)">
    <path id="Rectangle_2210" data-name="Rectangle 2210" d="M6,0H24a0,0,0,0,1,0,0V30a0,0,0,0,1,0,0H6a6,6,0,0,1-6-6V6A6,6,0,0,1,6,0Z" transform="translate(351 191)" opacity="0.5"/>
    <g id="angle-arrow-down" transform="translate(366.458 200) rotate(90)">
      <path id="Path_2902" data-name="Path 2902" d="M10.963,5.792l-.555.555a.349.349,0,0,1-.51,0L5.537,1.986,1.176,6.347a.349.349,0,0,1-.51,0L.111,5.792a.349.349,0,0,1,0-.51L5.282.111a.349.349,0,0,1,.51,0l5.171,5.171a.35.35,0,0,1,0,.511Z" fill="#fff"/>
    </g>
  </g>
</svg>
