<svg width="50" height="50" viewBox="0 0 50 50" fill="none" xmlns="http://www.w3.org/2000/svg">
<path d="M44.725 0H5C2.23858 0 0 2.23858 0 5V45C0 47.7614 2.23858 50 5 50H44.725C47.4864 50 49.725 47.7614 49.725 45V5C49.725 2.23858 47.4864 0 44.725 0Z" fill="#3F65A6"/>
<path d="M44.725 0H5C2.23858 0 0 2.23858 0 5V45C0 47.7614 2.23858 50 5 50H44.725C47.4864 50 49.725 47.7614 49.725 45V5C49.725 2.23858 47.4864 0 44.725 0Z" fill="#3F65A6"/>
<path d="M22.352 17.6066V21.4856H19.51V26.2296H22.352V39.2296H28.19V26.2186H32.107C32.107 26.2186 32.472 23.9425 32.655 21.4565H28.219V18.2106C28.2728 17.9071 28.4269 17.6305 28.6566 17.425C28.8864 17.2196 29.1784 17.0973 29.486 17.0776H32.664V12.1426H28.344C22.208 12.1526 22.352 16.8986 22.352 17.6066Z" fill="white"/>
</svg>
