<!-- Generator: Adobe Illustrator 24.1.2, SVG Export Plug-In  -->
<svg version="1.1" xmlns="http://www.w3.org/2000/svg" xmlns:xlink="http://www.w3.org/1999/xlink" x="0px" y="0px" width="23px"
	height="23px" viewBox="0 0 23 23" style="overflow:visible;enable-background:new 0 0 23 23;" xml:space="preserve">
	<style type="text/css">
		.twitter-w-st0{fill:none;}
		.twitter-w-st1{fill:#FFFFFF;}
	</style>
	<rect class="twitter-w-st0" width="23" height="23"/>
	<path id="Twitter-2_1_" class="twitter-w-st1" d="M23,4.2c-0.9,0.4-1.8,0.7-2.7,0.8c1-0.6,1.7-1.6,2.1-2.7c-0.9,0.6-1.9,1-3,1.2
		c-0.9-1-2.1-1.5-3.4-1.5c-2.6,0-4.7,2.2-4.7,4.8c0,0,0,0,0,0c0,0.4,0,0.7,0.1,1.1C7.5,7.7,4,5.8,1.6,2.8C1.2,3.5,1,4.4,1,5.2
		c0,1.6,0.8,3.1,2.1,4C2.3,9.2,1.6,9,1,8.6v0.1c0,2.3,1.6,4.3,3.8,4.7c-0.4,0.1-0.8,0.2-1.2,0.2c-0.3,0-0.6,0-0.9-0.1
		c0.6,2,2.3,3.3,4.4,3.4C5.3,18.3,3.3,19,1.1,19c-0.4,0-0.8,0-1.1-0.1c2.1,1.4,4.7,2.2,7.2,2.2c8.7,0,13.4-7.4,13.4-13.8
		c0-0.2,0-0.4,0-0.6C21.6,6,22.4,5.2,23,4.2"/>
</svg>
