<!-- Generator: Adobe Illustrator 24.1.2, SVG Export Plug-In  -->
<svg version="1.1" xmlns="http://www.w3.org/2000/svg" xmlns:xlink="http://www.w3.org/1999/xlink" x="0px" y="0px" width="30.3px"
	 height="30.2px" viewBox="0 0 30.3 30.2" style="overflow:visible;enable-background:new 0 0 30.3 30.2;" xml:space="preserve">
<style type="text/css">
	.logo-w-mark-st0{fill:#FFFFFF;}
	.logo-w-mark-st1{fill-rule:evenodd;clip-rule:evenodd;fill:#FFFFFF;}
</style>
<g>
	<path class="logo-w-mark-st0" d="M3,8.7h15.6c1.6,0,3,1.4,3,3l0,0v15.5c0,0.8-0.3,1.5-0.9,2.1l0,0c-0.6,0.6-1.3,0.9-2.1,0.9H3
		c-0.8,0-1.6-0.3-2.1-0.9l0,0C0.3,28.8,0,28,0,27.2V11.6c0-0.8,0.3-1.5,0.9-2.1l0.2-0.2C1.6,8.9,2.3,8.7,3,8.7L3,8.7z M17.4,12.8
		H4.2V26h13.2L17.4,12.8L17.4,12.8z"/>
	<path class="logo-w-mark-st0" d="M8.7,7V3c0-0.9,0.4-1.7,1-2.2h0.1C10.3,0.3,11,0,11.7,0h15.6c1.6,0,3,1.3,3,2.9v15.6c0,0.8-0.3,1.5-0.9,2.1
		l-0.2,0.2c-0.5,0.4-1.2,0.7-1.9,0.7h-4.4v-4.2h3.2V4.2H12.9V7H8.7z"/>
	<path class="logo-w-mark-st1" d="M8.6,17.2H13v4.3h-2.2c-1.2,0-2.2-1-2.2-2.2l0,0L8.6,17.2L8.6,17.2z"/>
</g>
</svg>
