<!-- Generator: Adobe Illustrator 24.1.2, SVG Export Plug-In  -->
<svg version="1.1" xmlns="http://www.w3.org/2000/svg" xmlns:xlink="http://www.w3.org/1999/xlink" x="0px" y="0px" width="23.5px"
	 height="24.1px" viewBox="0 0 23.5 24.1" style="overflow:visible;enable-background:new 0 0 23.5 24.1;" xml:space="preserve">
<style type="text/css">
	.google-st0{fill:#E94335;}
	.google-st1{fill:#34A853;}
	.google-st2{fill:#4285F3;}
	.google-st3{fill:#FABB06;}
</style>
<defs>
</defs>
<g id="レイヤー_2_2_">
	<g id="レイヤー_1-2_1_">
		<path class="google-st0" d="M1.2,6.7C2,5.2,3,3.8,4.4,2.7c1.8-1.5,3.9-2.4,6.2-2.6c2.6-0.3,5.3,0.2,7.6,1.6c0.6,0.3,1.1,0.7,1.7,1.2
			c0.1,0.1,0.1,0.2,0,0.3c-1.1,1.1-2.1,2.1-3.2,3.2c-0.1,0.1-0.2,0.1-0.3,0C13.2,4,8.7,4.6,6.4,7.7c0,0-0.1,0.1-0.1,0.1
			C5.9,8.3,5.5,9,5.3,9.6c0,0.1-0.1,0.1-0.1,0.2L3.4,8.4L1.2,6.7z"/>
		<path class="google-st1" d="M5.3,14.3c0.2,0.5,0.4,0.9,0.6,1.4c1,1.8,2.7,3,4.7,3.4c1.8,0.4,3.7,0.1,5.3-0.8l0.2-0.1c0,0,0,0.1,0.1,0.1
			l3.7,2.9c-0.6,0.6-1.3,1.1-2,1.5c-2,1.2-4.4,1.7-6.7,1.5c-2.9-0.2-5.6-1.4-7.6-3.5c-0.9-0.9-1.7-2-2.2-3.2l1.5-1.2L5.3,14.3z"/>
		<path class="google-st2" d="M19.8,21.1c-1.2-1-2.5-1.9-3.7-2.9c0,0-0.1,0-0.1-0.1c0.4-0.3,0.9-0.7,1.2-1.1c0.6-0.7,1-1.5,1.2-2.4
			c0-0.1,0-0.1-0.1-0.1h-6.1c-0.2,0-0.3-0.1-0.3-0.3c0-1.4,0-2.8,0-4.2c0-0.2,0-0.2,0.2-0.2H23c0.2,0,0.2,0,0.3,0.2
			c0.3,1.3,0.3,2.7,0.1,4c-0.1,1.1-0.4,2.1-0.8,3.1C22,18.6,21.1,19.9,20,21L19.8,21.1z"/>
		<path class="google-st3" d="M5.3,14.3l-2.5,1.9l-1.5,1.2c-0.4-0.7-0.7-1.5-0.9-2.3c-0.4-1.5-0.5-3.2-0.2-4.7C0.3,9,0.7,7.8,1.2,6.7
			l2.2,1.7l1.8,1.4c-0.1,0.5-0.2,1-0.2,1.6c-0.1,0.9,0,1.9,0.3,2.8C5.3,14.2,5.3,14.2,5.3,14.3z"/>
	</g>
</g>
</svg>
