<svg xmlns="http://www.w3.org/2000/svg" viewBox="0 0 23.8 29.28"><defs><style>.cls-1{fill:#fff;fill-rule:evenodd;}</style></defs><title>アセット 4</title><g id="レイヤー_2" data-name="レイヤー 2"><g id="レイヤー_1-2" data-name="レイヤー 1"><path class="cls-1" d="M7.19,7.17a8.25,8.25,0,0,1,3.18.74,12.45,12.45,0,0,0,1.34.46,1.65,1.65,0,0,0,1-.07l1.77-.65a7.64,7.64,0,0,1,3.2-.58,6.93,6.93,0,0,1,5.14,2.55c.23.28.21.31-.08.51A6.29,6.29,0,0,0,20,16.34a6.12,6.12,0,0,0,3.54,5c.27.13.32.25.22.53a17.52,17.52,0,0,1-2.94,5.16,10.82,10.82,0,0,1-1.22,1.31,3.63,3.63,0,0,1-3.45.72c-.66-.18-1.27-.48-1.91-.69a5.85,5.85,0,0,0-3.7.06c-.65.21-1.26.5-1.91.68a3.26,3.26,0,0,1-3.31-.86A16.22,16.22,0,0,1,1.6,23,18.64,18.64,0,0,1,.22,18.39a12.58,12.58,0,0,1,.26-5.85A7.71,7.71,0,0,1,3.12,8.61,6.43,6.43,0,0,1,7.19,7.17Z"/><path class="cls-1" d="M11.86,6.13a6.08,6.08,0,0,1,2.23-4.52A7,7,0,0,1,17.51,0c.19,0,.28,0,.28.22a6.7,6.7,0,0,1-2.45,5.4,4.73,4.73,0,0,1-3.11,1.15c-.29,0-.41-.07-.37-.37A2.61,2.61,0,0,0,11.86,6.13Z"/></g></g></svg>