<svg width="50" height="50" viewBox="0 0 50 50" fill="none" xmlns="http://www.w3.org/2000/svg">
<path d="M44.976 0H5.74899C3.02291 0 0.812988 2.20992 0.812988 4.936V44.163C0.812988 46.8891 3.02291 49.099 5.74899 49.099H44.976C47.7021 49.099 49.912 46.8891 49.912 44.163V4.936C49.912 2.20992 47.7021 0 44.976 0Z" fill="#3ACD01"/>
<path d="M25.494 8.3916C34.873 8.3916 42.771 14.3146 42.771 22.2126C42.706 24.8704 41.8464 27.4478 40.303 29.6125C40.2379 29.6112 40.1731 29.6231 40.1126 29.6473C40.0521 29.6716 39.9972 29.7079 39.951 29.7539C39.9049 29.7999 39.8685 29.8548 39.8441 29.9152C39.8197 29.9757 39.8078 30.0404 39.809 30.1056C39.2466 30.7156 38.5772 31.2175 37.834 31.5865C32.898 36.0295 25 41.4596 24.013 40.9656C23.026 39.9786 25.494 36.5226 23.026 36.0296H22.532C14.141 34.5486 7.724 29.1186 7.724 22.2076C7.724 14.3146 15.621 8.3916 25.494 8.3916ZM15.128 26.6556H18.583C18.8391 26.6383 19.0802 26.5287 19.2617 26.3472C19.4431 26.1657 19.5527 25.9246 19.57 25.6686C19.5527 25.4125 19.4431 25.1714 19.2617 24.9899C19.0802 24.8084 18.8391 24.6989 18.583 24.6816H16.115V18.7576C16.115 18.2636 15.621 18.2635 15.128 18.2635C14.634 18.2635 14.141 18.2636 14.141 18.7576V25.6686C14.1583 25.9246 14.2679 26.1657 14.4493 26.3472C14.6308 26.5287 14.8719 26.6383 15.128 26.6556ZM36.847 22.2126C36.847 21.7196 36.847 21.2256 36.354 21.2256H33.392V20.2386H36.354C36.847 20.2386 36.847 19.7446 36.847 19.2516C36.847 18.7576 36.847 18.2635 36.354 18.2635H32.405C31.911 18.2635 31.911 18.7576 31.911 19.2516V25.6686C31.911 26.1616 31.911 26.6556 32.405 26.6556H36.354C36.847 26.6556 36.847 26.1616 36.847 25.6686C36.847 25.1746 36.847 24.6816 36.354 24.6816H33.392V23.1985H36.354C36.847 23.1985 36.847 22.7066 36.847 22.2126ZM30.43 26.1616V18.7616C30.43 18.2676 29.936 18.2676 29.443 18.2676C28.949 18.2676 28.456 18.2676 28.456 18.7616V23.2046L25.494 18.7616C25 18.2676 25 18.2676 24.507 18.2676C24.013 18.2676 23.519 18.2676 23.519 18.7616V25.6725C23.5366 25.9287 23.6463 26.1699 23.8279 26.3513C24.0096 26.5328 24.2508 26.6423 24.507 26.6595C24.763 26.642 25.004 26.5325 25.1854 26.351C25.3669 26.1696 25.4765 25.9285 25.494 25.6725V21.7236L28.949 26.1656C28.949 26.6596 28.949 26.6595 29.443 26.6595H29.936C30.0016 26.6609 30.0668 26.649 30.1276 26.6244C30.1884 26.5998 30.2437 26.5631 30.2899 26.5165C30.3361 26.47 30.3723 26.4145 30.3964 26.3535C30.4205 26.2924 30.4319 26.2271 30.43 26.1616ZM21.545 26.6556C21.8011 26.6383 22.0422 26.5287 22.2237 26.3472C22.4052 26.1657 22.5147 25.9246 22.532 25.6686V18.7576C22.532 18.2636 22.039 18.2635 21.545 18.2635C21.051 18.2635 20.558 18.2636 20.558 18.7576V25.6686C20.5753 25.9246 20.6849 26.1657 20.8663 26.3472C21.0478 26.5287 21.289 26.6383 21.545 26.6556Z" fill="white"/>
</svg>
