<svg width="18" height="19" viewBox="0 0 18 19" fill="none" xmlns="http://www.w3.org/2000/svg">
<path d="M13.3642 9.57425C13.373 8.88432 13.5558 8.20784 13.8955 7.60776C14.2352 7.00768 14.7208 6.5035 15.3071 6.14213C14.9347 5.60884 14.4433 5.16995 13.8721 4.86035C13.3009 4.55074 12.6655 4.37893 12.0165 4.35857C10.632 4.21288 9.28975 5.18917 8.58423 5.18917C7.86506 5.18917 6.77881 4.37304 5.6091 4.39717C4.85249 4.42168 4.11512 4.64226 3.46883 5.03743C2.82254 5.43259 2.28936 5.98887 1.92126 6.65205C0.326714 9.41988 1.5161 13.4877 3.04354 15.725C3.80775 16.8205 4.7009 18.0443 5.86956 18.0009C7.01316 17.9533 7.44028 17.2697 8.8207 17.2697C10.1883 17.2697 10.589 18.0009 11.7814 17.9733C13.0086 17.9533 13.7817 16.8729 14.5191 15.7669C15.0682 14.9863 15.4907 14.1236 15.771 13.2106C15.0581 12.9083 14.4497 12.4023 14.0217 11.7556C13.5937 11.109 13.365 10.3503 13.3642 9.57425Z" fill="white"/>
<path d="M11.1142 2.88537C11.7833 2.08009 12.1129 1.04502 12.0331 0C11.0109 0.107641 10.0667 0.597455 9.38854 1.37185C9.05698 1.75016 8.80304 2.19027 8.64124 2.66704C8.47944 3.1438 8.41295 3.64786 8.44557 4.1504C8.95686 4.15568 9.46268 4.04457 9.92494 3.82545C10.3872 3.60632 10.7938 3.2849 11.1142 2.88537Z" fill="white"/>
</svg>
