<svg width="36" height="36" viewBox="0 0 36 36" fill="none" xmlns="http://www.w3.org/2000/svg">
<path d="M29.145 19.47C29.205 18.99 29.25 18.51 29.25 18C29.25 17.49 29.205 17.01 29.145 16.53L32.31 14.055C32.595 13.83 32.67 13.425 32.49 13.095L29.49 7.905C29.355 7.665 29.1 7.53 28.83 7.53C28.74 7.53 28.65 7.545 28.575 7.575L24.84 9.075C24.06 8.475 23.22 7.98 22.305 7.605L21.735 3.63C21.69 3.27 21.375 3 21 3H15C14.625 3 14.31 3.27 14.265 3.63L13.695 7.605C12.78 7.98 11.94 8.49 11.16 9.075L7.425 7.575C7.335 7.545 7.245 7.53 7.155 7.53C6.9 7.53 6.645 7.665 6.51 7.905L3.51 13.095C3.315 13.425 3.405 13.83 3.69 14.055L6.855 16.53C6.795 17.01 6.75 17.505 6.75 18C6.75 18.495 6.795 18.99 6.855 19.47L3.69 21.945C3.405 22.17 3.33 22.575 3.51 22.905L6.51 28.095C6.645 28.335 6.9 28.47 7.17 28.47C7.26 28.47 7.35 28.455 7.425 28.425L11.16 26.925C11.94 27.525 12.78 28.02 13.695 28.395L14.265 32.37C14.31 32.73 14.625 33 15 33H21C21.375 33 21.69 32.73 21.735 32.37L22.305 28.395C23.22 28.02 24.06 27.51 24.84 26.925L28.575 28.425C28.665 28.455 28.755 28.47 28.845 28.47C29.1 28.47 29.355 28.335 29.49 28.095L32.49 22.905C32.67 22.575 32.595 22.17 32.31 21.945L29.145 19.47ZM26.175 16.905C26.235 17.37 26.25 17.685 26.25 18C26.25 18.315 26.22 18.645 26.175 19.095L25.965 20.79L27.3 21.84L28.92 23.1L27.87 24.915L25.965 24.15L24.405 23.52L23.055 24.54C22.41 25.02 21.795 25.38 21.18 25.635L19.59 26.28L19.35 27.975L19.05 30H16.95L16.665 27.975L16.425 26.28L14.835 25.635C14.19 25.365 13.59 25.02 12.99 24.57L11.625 23.52L10.035 24.165L8.13 24.93L7.08 23.115L8.7 21.855L10.035 20.805L9.825 19.11C9.78 18.645 9.75 18.3 9.75 18C9.75 17.7 9.78 17.355 9.825 16.905L10.035 15.21L8.7 14.16L7.08 12.9L8.13 11.085L10.035 11.85L11.595 12.48L12.945 11.46C13.59 10.98 14.205 10.62 14.82 10.365L16.41 9.72L16.65 8.025L16.95 6H19.035L19.32 8.025L19.56 9.72L21.15 10.365C21.795 10.635 22.395 10.98 22.995 11.43L24.36 12.48L25.95 11.835L27.855 11.07L28.905 12.885L27.3 14.16L25.965 15.21L26.175 16.905ZM18 12C14.685 12 12 14.685 12 18C12 21.315 14.685 24 18 24C21.315 24 24 21.315 24 18C24 14.685 21.315 12 18 12ZM18 21C16.35 21 15 19.65 15 18C15 16.35 16.35 15 18 15C19.65 15 21 16.35 21 18C21 19.65 19.65 21 18 21Z" fill="#212022"/>
</svg>
