<svg width="50" height="50" viewBox="0 0 50 50" fill="none" xmlns="http://www.w3.org/2000/svg">
<path d="M46.082 0H4.44499C2.38441 0 0.713989 1.67043 0.713989 3.731V45.368C0.713989 47.4286 2.38441 49.099 4.44499 49.099H46.082C48.1426 49.099 49.813 47.4286 49.813 45.368V3.731C49.813 1.67043 48.1426 0 46.082 0Z" fill="#666666"/>
<path d="M39.975 15.0004C39.7634 14.6883 39.4788 14.4328 39.1459 14.2559C38.813 14.079 38.442 13.9861 38.065 13.9854H13.095C12.726 13.9866 12.3627 14.0762 12.0354 14.2467C11.7081 14.4172 11.4265 14.6636 11.214 14.9653L25.626 26.9813L39.975 15.0004Z" fill="white"/>
<path d="M10.782 17.0166V34.0776C10.7838 34.6904 11.0281 35.2775 11.4615 35.7108C11.8949 36.144 12.4822 36.388 13.095 36.3896H38.065C38.6777 36.388 39.2648 36.1439 39.6981 35.7107C40.1313 35.2775 40.3754 34.6903 40.377 34.0776V17.0776L25.626 29.3936L10.782 17.0166Z" fill="white"/>
</svg>
