<svg width="48" height="48" viewBox="0 0 48 48" fill="none" xmlns="http://www.w3.org/2000/svg">
<path d="M17.42 15.4198L22 10.8198V29.9998C22 30.5302 22.2107 31.0389 22.5858 31.414C22.9609 31.7891 23.4696 31.9998 24 31.9998C24.5304 31.9998 25.0391 31.7891 25.4142 31.414C25.7893 31.0389 26 30.5302 26 29.9998V10.8198L30.58 15.4198C30.7659 15.6073 30.9871 15.756 31.2308 15.8576C31.4746 15.9591 31.736 16.0114 32 16.0114C32.264 16.0114 32.5254 15.9591 32.7692 15.8576C33.0129 15.756 33.2341 15.6073 33.42 15.4198C33.6075 15.2339 33.7562 15.0127 33.8578 14.7689C33.9593 14.5252 34.0116 14.2638 34.0116 13.9998C34.0116 13.7358 33.9593 13.4744 33.8578 13.2306C33.7562 12.9869 33.6075 12.7657 33.42 12.5798L25.42 4.57979C25.2298 4.39771 25.0055 4.25498 24.76 4.15979C24.2731 3.95976 23.7269 3.95976 23.24 4.15979C22.9945 4.25498 22.7702 4.39771 22.58 4.57979L14.58 12.5798C14.3935 12.7663 14.2456 12.9877 14.1447 13.2313C14.0438 13.4749 13.9918 13.7361 13.9918 13.9998C13.9918 14.2635 14.0438 14.5246 14.1447 14.7683C14.2456 15.0119 14.3935 15.2333 14.58 15.4198C14.7665 15.6063 14.9879 15.7542 15.2315 15.8551C15.4751 15.956 15.7363 16.008 16 16.008C16.2637 16.008 16.5249 15.956 16.7685 15.8551C17.0121 15.7542 17.2335 15.6063 17.42 15.4198ZM42 23.9998C41.4696 23.9998 40.9609 24.2105 40.5858 24.5856C40.2107 24.9607 40 25.4694 40 25.9998V37.9998C40 38.5302 39.7893 39.0389 39.4142 39.414C39.0391 39.7891 38.5304 39.9998 38 39.9998H10C9.46957 39.9998 8.96086 39.7891 8.58579 39.414C8.21071 39.0389 8 38.5302 8 37.9998V25.9998C8 25.4694 7.78929 24.9607 7.41421 24.5856C7.03914 24.2105 6.53043 23.9998 6 23.9998C5.46957 23.9998 4.96086 24.2105 4.58579 24.5856C4.21071 24.9607 4 25.4694 4 25.9998V37.9998C4 39.5911 4.63214 41.1172 5.75736 42.2424C6.88258 43.3677 8.4087 43.9998 10 43.9998H38C39.5913 43.9998 41.1174 43.3677 42.2426 42.2424C43.3679 41.1172 44 39.5911 44 37.9998V25.9998C44 25.4694 43.7893 24.9607 43.4142 24.5856C43.0391 24.2105 42.5304 23.9998 42 23.9998Z" fill="#757575"/>
</svg>
