<svg xmlns="http://www.w3.org/2000/svg" viewBox="0 0 18.58 15.07"><defs><style>.cls-1{fill:#444;}.cls-2{fill:#cc0d16;}</style></defs><title>アセット 4</title><g id="レイヤー_2" data-name="レイヤー 2"><g id="レイヤー_1-2" data-name="レイヤー 1"><path class="cls-1" d="M8.84,9.39a.56.56,0,0,0,.9,0L13,5.28a.39.39,0,0,0,.09-.42.41.41,0,0,0-.4-.18H11.43a.61.61,0,0,1-.61-.59V.7A.71.71,0,0,0,10.1,0H8.48a.72.72,0,0,0-.73.7V4.09a.6.6,0,0,1-.61.59H5.9a.43.43,0,0,0-.41.18c-.06.12,0,.26.1.42Z"/><path class="cls-1" d="M16.15,8.86v3.88H2.42V8.86H0v5.32a.91.91,0,0,0,.92.89H17.65a.91.91,0,0,0,.93-.89V8.86Z"/><path class="cls-2" d="M8.84,9.39a.56.56,0,0,0,.9,0L13,5.28a.39.39,0,0,0,.09-.42.41.41,0,0,0-.4-.18H11.43a.61.61,0,0,1-.61-.59V.7A.71.71,0,0,0,10.1,0H8.48a.72.72,0,0,0-.73.7V4.09a.6.6,0,0,1-.61.59H5.9a.43.43,0,0,0-.41.18c-.06.12,0,.26.1.42Z"/><path class="cls-2" d="M16.15,8.86v3.88H2.42V8.86H0v5.32a.91.91,0,0,0,.92.89H17.65a.91.91,0,0,0,.93-.89V8.86Z"/></g></g></svg>