<svg width="15" height="15" viewBox="0 0 15 15" fill="none" xmlns="http://www.w3.org/2000/svg">
<path d="M15 7.5C15 3.35786 11.6421 0 7.5 0C3.35786 0 0 3.35786 0 7.5C0 11.2434 2.74263 14.3462 6.32812 14.9089V9.66797H4.42383V7.5H6.32812V5.84766C6.32812 3.96797 7.44785 2.92969 9.16099 2.92969C9.9813 2.92969 10.8398 3.07617 10.8398 3.07617V4.92188H9.89414C8.9625 4.92188 8.67188 5.50005 8.67188 6.09375V7.5H10.752L10.4194 9.66797H8.67188V14.9089C12.2574 14.3462 15 11.2434 15 7.5Z" fill="#1877F2"/>
<path d="M10.4175 9.66797L10.75 7.5H8.66992V6.09375C8.66992 5.50063 8.96055 4.92188 9.89219 4.92188H10.8379V3.07617C10.8379 3.07617 9.97964 2.92969 9.15903 2.92969C7.4459 2.92969 6.32617 3.96797 6.32617 5.84766V7.5H4.42188V9.66797H6.32617V14.9089C7.1027 15.0304 7.89339 15.0304 8.66992 14.9089V9.66797H10.4175Z" fill="white"/>
</svg>
