<svg width="15" height="15" viewBox="0 0 15 15" fill="none" xmlns="http://www.w3.org/2000/svg">
<path d="M4.7172 13.5945C10.3776 13.5945 13.4736 8.90493 13.4736 4.83813C13.4736 4.70493 13.4736 4.57233 13.4646 4.44033C14.0669 4.00468 14.5868 3.46526 15 2.84733C14.4384 3.09633 13.8425 3.25955 13.2324 3.33153C13.8749 2.94696 14.3557 2.34202 14.5854 1.62933C13.9813 1.98784 13.3204 2.24047 12.6312 2.37633C12.1672 1.88294 11.5535 1.55623 10.8851 1.44676C10.2167 1.33728 9.53089 1.45115 8.93373 1.77074C8.33657 2.09032 7.86139 2.59781 7.58171 3.21467C7.30204 3.83153 7.23346 4.52337 7.3866 5.18313C6.16306 5.12175 4.9661 4.80378 3.87341 4.24983C2.78072 3.69589 1.81673 2.91837 1.044 1.96773C0.650455 2.64523 0.52992 3.44725 0.706937 4.21049C0.883954 4.97374 1.34521 5.64083 1.9968 6.07593C1.50702 6.06158 1.0279 5.92945 0.6 5.69073V5.72973C0.600194 6.44026 0.846157 7.12885 1.29617 7.67871C1.74618 8.22857 2.37254 8.60584 3.069 8.74653C2.61593 8.87012 2.14055 8.88818 1.6794 8.79933C1.87613 9.41078 2.25902 9.94548 2.77452 10.3287C3.29003 10.7119 3.91239 10.9244 4.5546 10.9365C3.91652 11.4381 3.18582 11.8089 2.4043 12.0278C1.62277 12.2467 0.805759 12.3093 0 12.2121C1.4074 13.1153 3.04495 13.5943 4.7172 13.5921" fill="#1DA1F2"/>
</svg>
