<svg width="50" height="50" viewBox="0 0 50 50" fill="none" xmlns="http://www.w3.org/2000/svg">
<path d="M44.714 0H5.72498C2.96355 0 0.724976 2.23858 0.724976 5V45C0.724976 47.7614 2.96355 50 5.72498 50H44.714C47.4754 50 49.714 47.7614 49.714 45V5C49.714 2.23858 47.4754 0 44.714 0Z" fill="#00AAEC"/>
<path d="M44.714 0H5.72498C2.96355 0 0.724976 2.23858 0.724976 5V45C0.724976 47.7614 2.96355 50 5.72498 50H44.714C47.4754 50 49.714 47.7614 49.714 45V5C49.714 2.23858 47.4754 0 44.714 0Z" fill="#00AAEC"/>
<path d="M38.8371 16.0673C37.8446 16.519 36.7886 16.8158 35.7061 16.9473C36.8532 16.2403 37.7057 15.142 38.1061 13.8553C37.039 14.505 35.8668 14.9636 34.6421 15.2103C34.1384 14.6549 33.5241 14.211 32.8387 13.907C32.1532 13.6031 31.4119 13.4458 30.6621 13.4453C29.1981 13.4646 27.8017 14.0643 26.7798 15.1127C25.7578 16.1611 25.1939 17.5723 25.2121 19.0363C25.2106 19.4649 25.2575 19.8923 25.3521 20.3103C23.1708 20.1917 21.04 19.6091 19.1018 18.6013C17.1637 17.5935 15.4629 16.1838 14.1131 14.4663C13.6272 15.3244 13.3729 16.2942 13.3751 17.2803C13.3708 18.1947 13.5895 19.0963 14.0122 19.907C14.435 20.7178 15.049 21.4133 15.8011 21.9333C14.9328 21.9042 14.0846 21.6639 13.3301 21.2333V21.3013C13.3184 22.5788 13.747 23.8212 14.5438 24.8198C15.3406 25.8183 16.4569 26.5121 17.7051 26.7843C17.2378 26.9177 16.7541 26.985 16.2681 26.9843C15.9236 26.9847 15.58 26.9512 15.2421 26.8843C15.5758 27.9841 16.2475 28.9509 17.1617 29.6475C18.0758 30.3441 19.1861 30.7352 20.3351 30.7653C18.4183 32.3151 16.028 33.1604 13.5631 33.1603C13.1286 33.1604 12.6945 33.1347 12.2631 33.0833C14.7439 34.7197 17.6502 35.5924 20.6221 35.5933C30.6521 35.5933 36.1351 27.0743 36.1351 19.6853C36.1351 19.4423 36.1301 19.1993 36.1211 18.9613C37.1931 18.1666 38.1142 17.1865 38.8411 16.0673" fill="white"/>
</svg>
