<svg width="36" height="36" viewBox="0 0 36 36" fill="none" xmlns="http://www.w3.org/2000/svg">
<path d="M4.5 6C4.5 5.175 5.175 4.5 6 4.5H9V1.5H6C3.51 1.5 1.5 3.51 1.5 6V9H4.5V6Z" fill="#212022"/>
<path d="M4.5 30V27H1.5V30C1.5 32.49 3.51 34.5 6 34.5H9V31.5H6C5.175 31.5 4.5 30.825 4.5 30Z" fill="#212022"/>
<path d="M30 1.5H27V4.5H30C30.825 4.5 31.5 5.175 31.5 6V9H34.5V6C34.5 3.51 32.49 1.5 30 1.5Z" fill="#212022"/>
<path d="M31.5 30C31.5 30.825 30.825 31.5 30 31.5H27V34.5H30C32.49 34.5 34.5 32.49 34.5 30V27H31.5V30Z" fill="#212022"/>
<path d="M28.5 22.305V13.695C28.5 12.615 27.93 11.625 27 11.1L19.5 6.78C19.035 6.51 18.525 6.375 18 6.375C17.475 6.375 16.965 6.51 16.5 6.78L9 11.085C8.07 11.625 7.5 12.615 7.5 13.695V22.305C7.5 23.385 8.07 24.375 9 24.9L16.5 29.22C16.965 29.49 17.475 29.625 18 29.625C18.525 29.625 19.035 29.49 19.5 29.22L27 24.9C27.93 24.375 28.5 23.385 28.5 22.305ZM16.5 25.755L10.5 22.305V15.36L16.5 18.855V25.755ZM18 16.26L12.06 12.795L18 9.375L23.94 12.795L18 16.26ZM25.5 22.305L19.5 25.755V18.855L25.5 15.36V22.305Z" fill="#212022"/>
</svg>
