<!-- Generator: Adobe Illustrator 24.1.2, SVG Export Plug-In  -->
<svg version="1.1" xmlns="http://www.w3.org/2000/svg" xmlns:xlink="http://www.w3.org/1999/xlink" x="0px" y="0px" width="18px"
	 height="18.9px" viewBox="0 0 18 18.9" style="overflow:visible;enable-background:new 0 0 18 18.9;" xml:space="preserve">
<style type="text/css">
	.pdf-st0{fill-rule:evenodd;clip-rule:evenodd;fill:#FFFFFF;}
	.pdf-st1{fill-rule:evenodd;clip-rule:evenodd;fill:url(#SVGID_1_);fill-opacity:0.75;}
	.pdf-st2{fill-rule:evenodd;clip-rule:evenodd;fill:url(#SVGID_2_);fill-opacity:0.75;}
	.pdf-st3{fill-rule:evenodd;clip-rule:evenodd;fill:url(#SVGID_3_);fill-opacity:0.75;}
	.pdf-st4{fill-rule:evenodd;clip-rule:evenodd;fill:url(#SVGID_4_);}
	.pdf-st5{opacity:0.36;}
	.pdf-st6{fill-rule:evenodd;clip-rule:evenodd;fill:url(#SVGID_5_);}
	.pdf-st7{fill-rule:evenodd;clip-rule:evenodd;fill:url(#SVGID_6_);}
	.pdf-st8{fill:url(#SVGID_7_);fill-opacity:0.23;}
	.pdf-st9{fill:url(#SVGID_8_);fill-opacity:0.23;}
	.pdf-st10{fill:url(#SVGID_9_);}
	.pdf-st11{fill-rule:evenodd;clip-rule:evenodd;fill:url(#SVGID_10_);fill-opacity:0.75;}
	.pdf-st12{fill-rule:evenodd;clip-rule:evenodd;fill:url(#SVGID_11_);fill-opacity:0.75;}
	.pdf-st13{fill-rule:evenodd;clip-rule:evenodd;fill:url(#SVGID_12_);fill-opacity:0.75;}
	.pdf-st14{fill-rule:evenodd;clip-rule:evenodd;fill:url(#SVGID_13_);}
	.pdf-st15{fill-rule:evenodd;clip-rule:evenodd;fill:url(#SVGID_14_);}
	.pdf-st16{fill-rule:evenodd;clip-rule:evenodd;fill:url(#SVGID_15_);}
	.pdf-st17{fill:url(#SVGID_16_);fill-opacity:0.23;}
	.pdf-st18{fill:url(#SVGID_17_);fill-opacity:0.23;}
	.pdf-st19{fill:url(#SVGID_18_);}
</style>
<g id="レイヤー_1-2_1_">
	<path class="pdf-st0" d="M0.4,0.2v18.3h17.4V4.8l-4.3-4.6H0.4z"/>
	
		<linearGradient id="SVGID_1_" gradientUnits="userSpaceOnUse" x1="-5709.5361" y1="-280.5523" x2="-5709.4458" y2="-280.6723" gradientTransform="matrix(132.33 0 0 145.52 755543.0625 40848.3047)">
		<stop  offset="0" style="stop-color:#000000;stop-opacity:0.1"/>
		<stop  offset="1" style="stop-color:#000000;stop-opacity:0"/>
	</linearGradient>
	<path class="pdf-st1" d="M0.3,0.5v18.1h17.1V5.1l-4.3-4.5H0.3z"/>
	
		<linearGradient id="SVGID_2_" gradientUnits="userSpaceOnUse" x1="-5710.1963" y1="-280.6068" x2="-5710.106" y2="-280.7268" gradientTransform="matrix(134.3 0 0 147.45 766880.9375 41395.6562)">
		<stop  offset="0" style="stop-color:#000000;stop-opacity:0.1"/>
		<stop  offset="1" style="stop-color:#000000;stop-opacity:0"/>
	</linearGradient>
	<path class="pdf-st2" d="M0.1,0.5v18.3h17.4V5c-1.5-1.5-2.9-3-4.4-4.6L0.1,0.5L0.1,0.5z"/>
	
		<linearGradient id="SVGID_3_" gradientUnits="userSpaceOnUse" x1="-5710.8096" y1="-280.6345" x2="-5710.7095" y2="-280.7645" gradientTransform="matrix(136.28 0 0 149.39 778271.5 41942.7656)">
		<stop  offset="0" style="stop-color:#000000;stop-opacity:0.1"/>
		<stop  offset="1" style="stop-color:#000000;stop-opacity:0"/>
	</linearGradient>
	<path class="pdf-st3" d="M0,0.4v18.5h17.6V5c-1.5-1.6-2.9-3.1-4.4-4.7L0,0.4L0,0.4z"/>
	<g>
		
			<linearGradient id="SVGID_4_" gradientUnits="userSpaceOnUse" x1="-5710.1157" y1="-280.7445" x2="-5710.2158" y2="-280.6145" gradientTransform="matrix(134.11 0 0 146.96 765804.1875 41251.2266)">
			<stop  offset="0" style="stop-color:#DADADA"/>
			<stop  offset="0.35" style="stop-color:#F1F1F1"/>
			<stop  offset="1" style="stop-color:#F0F0F0"/>
		</linearGradient>
		<path class="pdf-st4" d="M0.4,0.2v18.3h17.4V4.8l-4.4-4.6H0.4z"/>
		<path class="pdf-st5" d="M17.8,18.7H0.4l-0.2-0.2V0.2L0.4,0h13.1L18,4.7v13.8L17.8,18.7z M0.6,18.3h16.9V4.9l-4.2-4.4H0.6V18.3z"/>
	</g>
	
		<linearGradient id="SVGID_5_" gradientUnits="userSpaceOnUse" x1="-5584.2798" y1="-271.23" x2="-5584.4097" y2="-271.1" gradientTransform="matrix(33.53 0 0 36.74 187254.6094 9969.5654)">
		<stop  offset="0" style="stop-color:#DADADA"/>
		<stop  offset="0.35" style="stop-color:#F1F1F1"/>
		<stop  offset="1" style="stop-color:#F0F0F0"/>
	</linearGradient>
	<path class="pdf-st6" d="M17.8,4.8c-1.4-0.3-2.9-0.4-4.3-0.1c0.2-1.5,0.2-3-0.1-4.5L17.8,4.8z"/>
	
		<linearGradient id="SVGID_6_" gradientUnits="userSpaceOnUse" x1="-5709.2896" y1="-280.4931" x2="-5709.3896" y2="-280.4431" gradientTransform="matrix(131.75 0 0 134.7 752225.875 37783.2461)">
		<stop  offset="0" style="stop-color:#FFFFFF"/>
		<stop  offset="1" style="stop-color:#FFFFFF;stop-opacity:0"/>
	</linearGradient>
	<path class="pdf-st7" d="M0.5,1.6L0.5,18.4h17.1v-4.1c-0.4,0.1-4.2-5.1-9.1-4.9S4.8,2.4,0.5,1.6L0.5,1.6z"/>
	
		<linearGradient id="SVGID_7_" gradientUnits="userSpaceOnUse" x1="-5699.3252" y1="-279.0411" x2="-5699.2651" y2="-279.1911" gradientTransform="matrix(107.05 0 0 92.37 610116.0625 25801.6758)">
		<stop  offset="0" style="stop-color:#000000;stop-opacity:0.3"/>
		<stop  offset="1" style="stop-color:#000000;stop-opacity:0"/>
	</linearGradient>
	<path class="pdf-st8" d="M8.7,5.6c-0.4,0-0.8,0.3-0.9,0.7C7.7,7,7.8,7.7,8.1,8.4c0.1,0.2,0.2,0.4,0.4,0.7c-0.1,0.3-0.2,0.7-0.3,1
		c-0.5,1.4-1.1,2.8-1.8,4.1C5.2,14.5,4.1,15,3,15.5c-0.6,0.3-1.8,1.1-0.7,1.5c0.6,0.2,1.2,0.2,1.8,0c0.3-0.1,0.5-0.2,0.8-0.4
		c0.2-0.1,0.4-0.3,0.7-0.5c0.6-0.5,1.1-1,1.5-1.6c1.7-0.6,3.5-1,5.3-1.3c0.8,0.6,1.9,0.8,2.8,0.5c0.9-0.3,0.8-1.2-0.3-1.2
		c-0.7-0.1-1.4-0.1-2.1,0.1c-0.3-0.2-0.6-0.5-0.9-0.8c-0.8-0.9-1.6-1.9-2.4-2.9C9.7,8,9.8,7.2,9.7,6.3C9.5,5.6,9.1,5.6,8.7,5.6
		L8.7,5.6z M8.5,6.3c0.1-0.2,0.4,0,0.4,0.2S8.9,7.3,8.6,7.5C8.5,7.1,8.4,6.7,8.5,6.3z M9.2,10.2c0.7,1,1.5,1.8,2.5,2.6l-0.9,0.2
		c-1.1,0.2-2.1,0.5-3.2,0.9C8.3,12.6,8.8,11.4,9.2,10.2z M13.7,13c0.4,0,0.7,0.1,0.6,0.3c-0.3-0.1-0.6-0.2-0.9-0.3L13.7,13z
		 M5.8,14.9c-0.1,0.1-0.1,0.2-0.2,0.3C5,16,4.1,16.5,3.1,16.5c-0.3-0.6,1-1,1.6-1.3L5.8,14.9L5.8,14.9z"/>
	
		<linearGradient id="SVGID_8_" gradientUnits="userSpaceOnUse" x1="-5700.7725" y1="-279.2203" x2="-5700.7124" y2="-279.3703" gradientTransform="matrix(109.58 0 0 94.42 624697.625 26382.793)">
		<stop  offset="0" style="stop-color:#000000;stop-opacity:0.3"/>
		<stop  offset="1" style="stop-color:#000000;stop-opacity:0"/>
	</linearGradient>
	<path class="pdf-st9" d="M8.7,5.5C7.5,5.6,7.5,6.6,7.6,7.2c0.1,0.7,0.3,1.3,0.7,1.9c-0.5,1.7-1.2,3.4-2.1,5C4.7,14.5,3.3,15.2,2,16
		c-0.4,0.3-0.3,0.9,0.3,1.1c1.1,0.3,2.4,0,3.2-0.8c0.7-0.5,1.1-1.2,1.7-1.7c1.6-0.5,3.3-0.9,5-1.2c0.9,0.6,2,0.8,3,0.4
		c0.9-0.2,0.8-1.4-0.3-1.4c-0.7-0.1-1.5-0.1-2.2,0c-1.1-1.1-2.2-2.2-3.1-3.5c0.1-1,0.6-2.1,0-3.1C9.4,5.5,9.1,5.4,8.7,5.5L8.7,5.5z
		 M10.1,11.6c0.4,0.4,0.8,0.7,1.2,1.1c-1.1,0.2-2.3,0.5-3.4,0.8c0.5-1,1-2,1.3-3L10.1,11.6L10.1,11.6z M5,15.6
		c-0.5,0.4-1,0.7-1.7,0.8c0.1-0.6,1.2-0.8,1.8-1.1S5,15.5,5,15.6z"/>
	
		<linearGradient id="SVGID_9_" gradientUnits="userSpaceOnUse" x1="-5699.4131" y1="-280.2402" x2="-5699.3232" y2="-280.1602" gradientTransform="matrix(107.05 0 0 126.44 610123.5625 35438.6992)">
		<stop  offset="0" style="stop-color:#DF421E"/>
		<stop  offset="1" style="stop-color:#990000"/>
	</linearGradient>
	<path class="pdf-st10" d="M8.4,1.6C8,1.7,7.7,1.9,7.5,2.5c-0.1,1,0,1.9,0.3,2.9C7.9,5.7,8,6,8.2,6.3C8.1,6.8,8,7.3,7.9,7.7
		C7.4,9.6,6.8,11.5,6,13.3c-1.1,0.5-2.2,1.1-3.3,1.8c-0.6,0.4-1.8,1.5-0.7,2c0.6,0.3,1.2,0.3,1.8,0C4,17,4.3,16.8,4.6,16.6
		C4.8,16.4,5,16.2,5.2,16c0.6-0.7,1.1-1.4,1.5-2.2c1.7-0.7,3.5-1.4,5.3-1.8c0.8,0.6,1.9,1.3,2.8,0.6c0.4-0.1,0.7-0.6,0.6-1.1
		c-0.1-0.4-0.5-0.6-0.9-0.6c-0.7-0.1-1.4-0.1-2.1,0.1c-0.3-0.3-0.6-0.7-0.9-1c-0.9-1.3-1.6-2.6-2.4-4c0.2-1.2,0.3-2.3,0.2-3.5
		C9.3,1.7,8.8,1.6,8.4,1.6L8.4,1.6z M8.2,2.6c0.1-0.2,0.4,0,0.4,0.3S8.6,4,8.3,4.2C8.2,3.7,8.1,3.1,8.2,2.6z M8.9,7.8
		c0.7,1.3,1.5,2.5,2.5,3.5l-0.9,0.2c-1.1,0.3-2.1,0.7-3.2,1.2C8,11.2,8.5,9.5,8.9,7.8z M13.4,11.7c0.4,0,0.7,0.1,0.6,0.4
		c-0.3-0.1-0.6-0.2-0.9-0.4L13.4,11.7z M5.5,14.3l-0.2,0.4c-0.6,0.8-1.3,1.8-2.4,1.8c-0.3-0.9,1-1.4,1.6-1.8L5.5,14.3L5.5,14.3z"/>
</g>
</svg>
