<svg width="17" height="17" viewBox="0 0 17 17" fill="none" xmlns="http://www.w3.org/2000/svg">
<path fill-rule="evenodd" clip-rule="evenodd" d="M8.5 17C13.1944 17 17 13.1944 17 8.5C17 3.80558 13.1944 0 8.5 0C3.80558 0 0 3.80558 0 8.5C0 13.1944 3.80558 17 8.5 17ZM9.20825 10.541H7.43419C7.26896 9.37293 8.15255 8.71991 8.93896 8.13872C9.52711 7.70405 10.0609 7.30956 10.0609 6.76983C10.0609 5.9896 9.40079 5.54746 8.32809 5.54746C7.47544 5.54746 6.80157 5.89857 6.1277 6.57477L5 5.58648C5.8664 4.62419 7.07662 4 8.54813 4C10.5422 4 12 4.87126 12 6.60078C12 7.5511 11.259 8.08362 10.5392 8.60096C9.81105 9.12425 9.10452 9.63202 9.20825 10.541ZM9.53831 12.8557C9.53831 13.5319 9.02947 14 8.32809 14C7.62672 14 7.11788 13.5319 7.11788 12.8557C7.11788 12.1664 7.64047 11.6983 8.32809 11.6983C9.02947 11.6983 9.53831 12.1664 9.53831 12.8557Z" fill="#9F9F9F"/>
</svg>
