<svg width="35" height="36" viewBox="0 0 35 36" fill="none" xmlns="http://www.w3.org/2000/svg">
<path fill-rule="evenodd" clip-rule="evenodd" d="M23.0201 0C18.6093 0 15.0336 3.57571 15.0336 7.98658V16.9128H0V35.2349H25.1342V16.9128H18.3221V7.98658C18.3221 5.39195 20.4255 3.28859 23.0201 3.28859H27.0134C29.6081 3.28859 31.7114 5.39195 31.7114 7.98658V14.5638H35V7.98658C35 3.57571 31.4243 0 27.0134 0H23.0201ZM13.5012 26.0919C14.279 25.7052 14.8135 24.9025 14.8135 23.9749C14.8135 22.67 13.7556 21.6121 12.4507 21.6121C11.1457 21.6121 10.0879 22.67 10.0879 23.9749C10.0879 24.9028 10.6227 25.7057 11.4009 26.0923V30.5382H13.5012V26.0919Z" fill="black"/>
</svg>
